<svg width="96" height="96" viewBox="0 0 96 96" fill="none" xmlns="http://www.w3.org/2000/svg">
<path d="M48.0333 18.0951C38.5949 9.66463 24.1007 9.97964 15.0402 19.0402C5.65328 28.427 5.65328 43.6462 15.0402 53.033L38.9425 76.9354C38.9732 76.9664 39.0041 76.9973 39.035 77.0282L46.2657 84.2589C47.2418 85.235 48.8244 85.235 49.8005 84.2589L81.0262 53.0332C90.4131 43.6464 90.4131 28.4272 81.0262 19.0403C71.9658 9.97989 57.4717 9.66481 48.0333 18.0951Z" fill="url(#paint0_linear_46_287)"/>
<path d="M80.9432 19.0402C71.5564 9.65328 56.3372 9.65328 46.9503 19.0402L38.952 27.0385C25.1478 40.8427 25.1478 63.2238 38.952 77.028L46.1827 84.2588C47.1588 85.2349 48.7414 85.2349 49.7175 84.2588L80.9432 53.033C90.3301 43.6462 90.3301 28.427 80.9432 19.0402Z" fill="url(#paint1_linear_46_287)"/>
<path d="M57.0313 77.0281L81.0261 53.0333C90.413 43.6464 90.413 28.4273 81.0261 19.0404C71.9657 9.97996 57.4716 9.66487 48.0332 18.0952C48.3732 18.3988 48.7066 18.7139 49.033 19.0402L57.0313 27.0386C70.8355 40.8428 70.8355 63.2239 57.0313 77.0281Z" fill="url(#paint2_linear_46_287)" fill-opacity="0.42"/>
<circle cx="64" cy="36" r="24" fill="url(#paint3_linear_46_287)"/>
<rect x="66" y="28" width="4" height="26" rx="2" fill="#0E2F8F"/>
<g filter="url(#filter0_d_46_287)">
<path d="M15.0402 19.0992C24.427 9.71236 39.6462 9.71236 49.0331 19.0992L57.0314 27.0976C70.8356 40.9018 70.8356 63.2829 57.0314 77.0871L49.8007 84.3178C48.8246 85.2939 47.242 85.2939 46.2659 84.3178L15.0402 53.0921C5.65328 43.7052 5.65328 28.4861 15.0402 19.0992Z" fill="url(#paint4_linear_46_287)"/>
</g>
<path d="M15.0402 19.0992C24.427 9.71236 39.6462 9.71236 49.0331 19.0992L57.0314 27.0976C70.8356 40.9018 70.8356 63.2829 57.0314 77.0871L49.8007 84.3178C48.8246 85.2939 47.242 85.2939 46.2659 84.3178L15.0402 53.0921C5.65328 43.7052 5.65328 28.4861 15.0402 19.0992Z" fill="url(#paint5_linear_46_287)"/>
<rect x="35" y="28" width="4" height="26" rx="2" fill="#D4EE28"/>
<rect x="43" y="40" width="4" height="10" rx="2" fill="#D4EE28"/>
<rect x="27" y="40" width="4" height="10" rx="2" fill="#D4EE28"/>
<rect x="51" y="36" width="3" height="26" rx="1.5" fill="#D4EE28"/>
<rect x="58" y="40" width="4" height="10" rx="2" fill="#D4EE28"/>
<defs>
<filter id="filter0_d_46_287" x="4.6" y="7.65908" width="68.1845" height="81.7908" filterUnits="userSpaceOnUse" color-interpolation-filters="sRGB">
<feFlood flood-opacity="0" result="BackgroundImageFix"/>
<feColorMatrix in="SourceAlpha" type="matrix" values="0 0 0 0 0 0 0 0 0 0 0 0 0 0 0 0 0 0 127 0" result="hardAlpha"/>
<feOffset dx="1"/>
<feGaussianBlur stdDeviation="2.2"/>
<feComposite in2="hardAlpha" operator="out"/>
<feColorMatrix type="matrix" values="0 0 0 0 0 0 0 0 0 0 0 0 0 0 0 0 0 0 0.24 0"/>
<feBlend mode="normal" in2="BackgroundImageFix" result="effect1_dropShadow_46_287"/>
<feBlend mode="normal" in="SourceGraphic" in2="effect1_dropShadow_46_287" result="shape"/>
</filter>
<linearGradient id="paint0_linear_46_287" x1="12.9984" y1="12" x2="67.987" y2="69.4881" gradientUnits="userSpaceOnUse">
<stop stop-color="#567EEC"/>
<stop offset="1" stop-color="#09236C"/>
</linearGradient>
<linearGradient id="paint1_linear_46_287" x1="84.2342" y1="21.9387" x2="47" y2="84" gradientUnits="userSpaceOnUse">
<stop offset="0.0362845" stop-color="#D4EE28"/>
<stop offset="0.586538" stop-color="#376988"/>
</linearGradient>
<linearGradient id="paint2_linear_46_287" x1="62" y1="47" x2="88" y2="30" gradientUnits="userSpaceOnUse">
<stop stop-color="#507B39"/>
<stop offset="1" stop-color="#C6FF36"/>
</linearGradient>
<linearGradient id="paint3_linear_46_287" x1="76.5" y1="4.5" x2="50.5" y2="50" gradientUnits="userSpaceOnUse">
<stop stop-color="#92CB00"/>
<stop offset="0.860577" stop-color="#ACE51B" stop-opacity="0"/>
</linearGradient>
<linearGradient id="paint4_linear_46_287" x1="57.5" y1="75" x2="11" y2="33" gradientUnits="userSpaceOnUse">
<stop stop-color="#4924AC"/>
<stop offset="1" stop-color="#9A42EC"/>
</linearGradient>
<linearGradient id="paint5_linear_46_287" x1="30.5" y1="-18.5" x2="47" y2="83" gradientUnits="userSpaceOnUse">
<stop offset="0.504808" stop-color="#154EEC" stop-opacity="0"/>
<stop offset="1" stop-color="#0C2E8C"/>
</linearGradient>
</defs>
</svg>
